<svg xmlns="http://www.w3.org/2000/svg" xmlns:xlink="http://www.w3.org/1999/xlink" width="500" zoomAndPan="magnify" viewBox="0 0 375 374.999991" height="500" preserveAspectRatio="xMidYMid meet" version="1.0"><defs><clipPath id="449558b7fc"><path d="M 188.71875 0 C 84.492188 0 0 83.945312 0 187.5 C 0 291.054688 84.492188 375 188.71875 375 C 292.945312 375 377.4375 291.054688 377.4375 187.5 C 377.4375 83.945312 292.945312 0 188.71875 0 Z M 188.71875 0 " clip-rule="nonzero"/></clipPath><clipPath id="5b54ec8211"><path d="M 165 26.585938 L 188 26.585938 L 188 60 L 165 60 Z M 165 26.585938 " clip-rule="nonzero"/></clipPath></defs><rect x="-37.5" width="450" fill="#ffffff" y="-37.499999" height="449.999989" fill-opacity="1"/><rect x="-37.5" width="450" fill="#ffffff" y="-37.499999" height="449.999989" fill-opacity="1"/><g clip-path="url(#449558b7fc)"><rect x="-37.5" width="450" fill="#4da391" y="-37.499999" height="449.999989" fill-opacity="1"/></g><path fill="#273e66" d="M 45.554688 113.882812 C 45.828125 113.296875 46.097656 112.703125 46.363281 112.042969 C 42.703125 103.171875 39.0625 94.261719 35.4375 85.3125 C 40.765625 81.550781 46.042969 77.839844 51.371094 74.125 C 53.257812 72.78125 56.917969 75.351562 52.988281 78.050781 C 48.84375 80.957031 44.695312 83.914062 40.550781 86.820312 C 43.996094 95.265625 47.460938 103.707031 50.941406 112.152344 C 50.40625 113.335938 49.863281 114.464844 49.328125 115.59375 C 48.097656 115.054688 46.796875 114.464844 45.554688 113.871094 Z M 45.554688 113.882812 " fill-opacity="1" fill-rule="nonzero"/><path fill="#273e66" d="M 44.105469 113.832031 L 31.9375 130.503906 L 32.421875 137.386719 L 42.597656 141.683594 L 48.195312 136.683594 L 51.320312 115.707031 C 51.695312 113.230469 46.40625 110.597656 44.105469 113.824219 Z M 44.105469 113.832031 " fill-opacity="1" fill-rule="evenodd"/><path fill="#273e66" d="M 45.773438 115.015625 L 34.089844 131.140625 L 34.414062 135.929688 L 42.167969 139.210938 L 46.257812 135.660156 L 49.21875 115.382812 C 49.21875 115.328125 49.164062 115.382812 49.058594 115.273438 C 48.792969 114.972656 48.46875 114.757812 48.089844 114.628906 C 47.699219 114.449219 47.289062 114.375 46.863281 114.414062 C 46.425781 114.46875 46.066406 114.667969 45.785156 115.007812 Z M 30.265625 129.320312 L 42.382812 112.597656 C 42.847656 111.914062 43.4375 111.371094 44.15625 110.964844 C 44.875 110.558594 45.648438 110.332031 46.472656 110.28125 C 47.574219 110.167969 48.632812 110.328125 49.648438 110.765625 C 50.628906 111.136719 51.472656 111.714844 52.179688 112.488281 C 53.101562 113.511719 53.578125 114.746094 53.363281 115.980469 L 50.191406 137.765625 L 42.980469 144.113281 L 30.390625 138.785156 L 29.835938 129.914062 Z M 30.265625 129.320312 " fill-opacity="1" fill-rule="nonzero"/><path fill="#273e66" d="M 89.925781 220.21875 C 79.265625 219.199219 69.046875 216.992188 59.394531 213.164062 C 49.378906 209.269531 40.277344 203.835938 32.09375 196.867188 L 28.058594 201.652344 C 36.761719 209.0625 46.433594 214.855469 57.078125 219.027344 C 67.3125 223.011719 78.078125 225.371094 89.320312 226.449219 Z M 89.925781 220.21875 " fill-opacity="1" fill-rule="nonzero"/><path fill="#273e66" d="M 38.125 184.9375 C 35.382812 172.941406 29.671875 180.363281 27.949219 176.921875 C 21.058594 163.046875 0.929688 175.417969 0.929688 186.335938 C 0.929688 199.566406 10.730469 203.332031 18.648438 204.125 C 28.875 205.253906 41.097656 197.566406 38.136719 184.925781 Z M 38.125 184.9375 " fill-opacity="1" fill-rule="evenodd"/><path fill="#4da391" d="M 31.769531 130.832031 L 16.324219 170.898438 C 19.660156 171.433594 22.082031 175.578125 21.167969 179.179688 C 19.769531 184.984375 17.238281 187.355469 12.015625 189.882812 C 11.367188 190.203125 10.074219 190.367188 8.785156 190.472656 L 2.644531 206.390625 C 1.617188 209.136719 17.996094 215.429688 19.007812 212.6875 L 26.710938 192.679688 C 24.5625 186.707031 22.292969 176.863281 32.46875 177.671875 L 48.128906 137.117188 C 49.152344 134.359375 32.839844 128.082031 31.761719 130.824219 Z M 31.769531 130.832031 " fill-opacity="1" fill-rule="evenodd"/><path fill="#273e66" d="M 33.714844 131.582031 L 19.011719 169.714844 C 20.308594 170.460938 21.332031 171.484375 22.082031 172.78125 C 22.648438 173.699219 23.039062 174.683594 23.261719 175.738281 C 23.484375 176.789062 23.519531 177.847656 23.375 178.914062 C 23.320312 179.1875 23.269531 179.402344 23.210938 179.667969 C 22.40625 182.949219 21.273438 185.261719 19.554688 187.144531 C 17.882812 189.027344 15.78125 190.371094 12.929688 191.769531 C 12.355469 192.003906 11.761719 192.183594 11.152344 192.308594 C 10.886719 192.363281 10.558594 192.414062 10.292969 192.46875 L 5.445312 204.949219 C 4.742188 206.832031 6.84375 209.195312 10.074219 210.59375 C 12.980469 211.886719 16.859375 212.433594 17.832031 209.949219 L 24.503906 192.628906 C 23.425781 189.511719 22.460938 185.574219 22.890625 182.355469 C 23.484375 178.488281 25.691406 175.632812 31.074219 175.582031 L 46.203125 136.355469 C 47.0625 134.902344 34.734375 129.914062 33.710938 131.570312 Z M 14.371094 170.148438 L 29.835938 130.074219 C 30.699219 127.871094 34.035156 127.761719 37.910156 128.785156 C 39.042969 129.089844 40.28125 129.484375 41.519531 129.96875 C 42.703125 130.449219 43.941406 130.988281 44.964844 131.527344 C 48.519531 133.304688 50.941406 135.617188 50.078125 137.875 L 33.875 179.933594 L 32.3125 179.773438 C 28.707031 179.503906 27.359375 180.957031 27.035156 182.945312 C 26.65625 185.636719 27.683594 189.183594 28.707031 191.980469 L 28.972656 192.679688 C 28.328125 194.351562 24.398438 204.351562 22.296875 209.839844 C 19.984375 215.808594 13.574219 215.972656 8.675781 214.035156 C 3.507812 211.988281 0.0078125 207.527344 1.570312 203.4375 L 7.328125 188.539062 L 8.621094 188.433594 C 9.21875 188.375 9.8125 188.285156 10.398438 188.164062 C 10.640625 188.132812 10.871094 188.082031 11.101562 188 C 13.46875 186.820312 15.246094 185.742188 16.480469 184.34375 C 17.667969 183 18.53125 181.226562 19.175781 178.699219 C 19.175781 178.589844 19.230469 178.429688 19.230469 178.320312 C 19.386719 177.109375 19.15625 175.980469 18.53125 174.929688 C 17.9375 173.964844 17.128906 173.265625 16.265625 173.046875 L 16.160156 172.996094 L 13.253906 172.996094 Z M 14.371094 170.148438 " fill-opacity="1" fill-rule="nonzero"/><path fill="#273e66" d="M 314.285156 111.949219 L 320.53125 109.527344 C 320.757812 109.449219 320.992188 109.414062 321.234375 109.421875 C 321.476562 109.433594 321.710938 109.488281 321.929688 109.589844 C 322.152344 109.691406 322.34375 109.828125 322.511719 110.003906 C 322.679688 110.179688 322.808594 110.378906 322.898438 110.605469 L 343.46875 164.066406 C 343.5625 164.296875 343.613281 164.53125 343.609375 164.78125 C 343.609375 165.027344 343.5625 165.265625 343.464844 165.492188 C 343.371094 165.71875 343.234375 165.917969 343.054688 166.09375 C 342.878906 166.265625 342.675781 166.394531 342.445312 166.488281 L 336.199219 168.867188 C 335.96875 168.953125 335.734375 168.992188 335.488281 168.984375 C 335.246094 168.976562 335.011719 168.921875 334.789062 168.820312 C 334.566406 168.71875 334.375 168.578125 334.207031 168.402344 C 334.039062 168.222656 333.914062 168.019531 333.828125 167.789062 L 313.253906 114.328125 C 313.164062 114.105469 313.117188 113.871094 313.121094 113.628906 C 313.125 113.386719 313.171875 113.152344 313.269531 112.929688 C 313.367188 112.707031 313.5 112.511719 313.675781 112.34375 C 313.851562 112.175781 314.050781 112.046875 314.277344 111.960938 Z M 314.285156 111.949219 " fill-opacity="1" fill-rule="evenodd"/><path fill="#273e66" d="M 313.527344 110.011719 L 320.152344 107.429688 L 320.257812 107.429688 C 321.136719 107.210938 321.980469 107.300781 322.789062 107.699219 C 323.757812 108.144531 324.441406 108.859375 324.835938 109.847656 C 331.726562 127.707031 338.601562 145.542969 345.457031 163.363281 C 345.832031 164.359375 345.8125 165.34375 345.402344 166.324219 C 344.953125 167.324219 344.21875 168.023438 343.195312 168.417969 L 336.949219 170.84375 C 335.929688 171.226562 334.925781 171.191406 333.933594 170.734375 C 332.949219 170.28125 332.265625 169.546875 331.890625 168.53125 L 311.316406 115.066406 C 310.945312 114.070312 310.964844 113.085938 311.375 112.109375 C 311.5625 111.621094 311.84375 111.191406 312.21875 110.824219 C 312.59375 110.460938 313.027344 110.1875 313.523438 110.011719 Z M 320.898438 111.625 L 315.296875 113.773438 L 335.703125 166.863281 L 341.464844 164.65625 L 321.007812 111.570312 Z M 320.898438 111.625 " fill-opacity="1" fill-rule="nonzero"/><path fill="#273e66" d="M 276.378906 220.21875 C 287.039062 219.199219 297.214844 216.992188 306.90625 213.164062 C 316.925781 209.273438 326.027344 203.84375 334.210938 196.878906 L 338.25 201.664062 C 329.527344 209.074219 319.835938 214.863281 309.175781 219.035156 C 299 223.023438 288.230469 225.382812 276.976562 226.457031 Z M 276.378906 220.21875 " fill-opacity="1" fill-rule="nonzero"/><path fill="#d6eff8" d="M 155.019531 91.242188 C 146.996094 90.015625 139.359375 88.929688 132.347656 88.335938 C 93.421875 85.109375 74.578125 110.113281 67.847656 136.636719 C 60.203125 166.972656 70.972656 192.359375 83.675781 218.984375 C 96.921875 246.734375 101.121094 266.582031 104.351562 293.042969 C 110.277344 341.558594 136.175781 348.28125 153.296875 338.441406 C 177.46875 324.507812 166.539062 297.511719 173.21875 274.972656 C 179.40625 254.117188 187.054688 257.976562 191.902344 276.480469 C 197.660156 298.746094 187.753906 324.777344 211.394531 338.4375 C 228.511719 348.28125 254.410156 341.554688 260.332031 293.042969 C 263.511719 266.582031 267.761719 246.726562 281.007812 218.980469 C 293.714844 192.355469 304.484375 166.96875 296.785156 136.632812 C 290.105469 110.117188 271.265625 85.105469 232.335938 88.335938 C 227.757812 88.710938 222.96875 89.304688 217.90625 90.003906 C 187.753906 94.25 185.492188 95.917969 155.019531 91.230469 Z M 155.019531 91.242188 " fill-opacity="1" fill-rule="evenodd"/><path fill="#273e66" d="M 154.589844 94.027344 C 150.386719 93.378906 146.402344 92.800781 142.902344 92.359375 C 139.296875 91.875 135.691406 91.4375 132.082031 91.175781 C 122.175781 90.316406 113.613281 91.445312 106.289062 93.917969 L 102.414062 89.292969 C 110.867188 86.011719 120.882812 84.5625 132.566406 85.527344 C 136.011719 85.796875 139.726562 86.226562 143.65625 86.753906 C 147.75 87.292969 151.640625 87.828125 155.449219 88.417969 C 181.671875 92.40625 186.679688 91.703125 207.40625 88.632812 C 210.152344 88.261719 213.222656 87.828125 217.539062 87.183594 C 220.121094 86.804688 222.652344 86.484375 224.96875 86.214844 C 227.445312 85.949219 229.816406 85.679688 232.128906 85.515625 C 250.4375 83.957031 264.542969 88.476562 275.152344 96.488281 C 288.070312 106.113281 295.773438 120.800781 299.539062 135.96875 C 303.53125 151.609375 302.71875 165.976562 299.324219 179.855469 C 297.859375 185.65625 296.027344 191.339844 293.832031 196.90625 L 287.75 196.90625 C 290.183594 190.90625 292.210938 184.769531 293.832031 178.5 C 297.007812 165.433594 297.761719 151.984375 294.046875 137.300781 C 290.550781 123.320312 283.492188 109.765625 271.757812 101 C 262.171875 93.789062 249.34375 89.757812 232.558594 91.15625 C 230.296875 91.316406 227.980469 91.585938 225.613281 91.851562 C 223.136719 92.121094 220.714844 92.445312 218.347656 92.820312 C 215.113281 93.25 211.453125 93.789062 208.214844 94.273438 C 186.828125 97.429688 181.609375 98.179688 154.589844 94.027344 Z M 78.292969 117.953125 C 74.859375 124.0625 72.292969 130.515625 70.59375 137.316406 C 66.933594 151.996094 67.632812 165.445312 70.863281 178.515625 C 74.148438 191.703125 79.910156 204.546875 86.214844 217.722656 C 92.890625 231.761719 97.359375 243.808594 100.535156 255.757812 C 103.660156 267.640625 105.542969 279.316406 107.160156 292.652344 C 108.828125 306.476562 112.167969 316.75 116.421875 324.117188 C 119.972656 330.300781 124.226562 334.390625 128.703125 336.8125 C 130.746094 337.90625 132.90625 338.664062 135.1875 339.085938 C 137.464844 339.507812 139.753906 339.574219 142.054688 339.285156 C 145.566406 338.839844 148.851562 337.726562 151.910156 335.949219 C 166.605469 327.453125 167.144531 313.144531 167.628906 298.246094 C 167.898438 290.179688 168.167969 281.992188 170.535156 274.152344 C 172.53125 267.320312 174.789062 262.855469 177.160156 260.488281 C 178.9375 258.714844 180.875 257.90625 182.8125 258.070312 C 184.75 258.230469 186.527344 259.199219 188.089844 261.027344 C 190.566406 263.824219 192.828125 268.882812 194.601562 275.75 C 196.542969 283.109375 196.8125 290.757812 197.082031 298.230469 C 197.566406 313.128906 198.050781 327.4375 212.800781 335.933594 C 215.855469 337.722656 219.140625 338.832031 222.65625 339.269531 C 224.957031 339.558594 227.246094 339.492188 229.523438 339.070312 C 231.804688 338.648438 233.964844 337.890625 236.007812 336.796875 C 240.480469 334.375 244.675781 330.289062 248.289062 324.105469 C 252.546875 316.742188 255.828125 306.460938 257.5 292.636719 C 259.167969 279.300781 261.054688 267.625 264.175781 255.742188 C 266.046875 248.734375 268.289062 241.847656 270.90625 235.085938 L 277.046875 235.085938 C 274.125 242.300781 271.667969 249.667969 269.679688 257.191406 C 266.609375 268.757812 264.765625 280.214844 263.164062 293.335938 C 261.386719 307.910156 257.832031 318.886719 253.203125 326.898438 C 249.058594 334.105469 244.050781 338.894531 238.71875 341.742188 C 236.164062 343.132812 233.453125 344.097656 230.59375 344.640625 C 227.734375 345.183594 224.863281 345.273438 221.972656 344.917969 C 217.710938 344.367188 213.730469 343.003906 210.023438 340.828125 C 192.523438 330.773438 191.984375 314.90625 191.390625 298.394531 C 191.175781 291.238281 190.910156 283.925781 189.183594 277.203125 C 187.570312 271.125 185.804688 266.875 183.910156 264.722656 C 183.316406 264.078125 182.832031 263.753906 182.453125 263.699219 C 182.144531 263.699219 181.757812 263.914062 181.226562 264.457031 C 179.503906 266.175781 177.726562 269.832031 176.003906 275.695312 C 173.855469 282.902344 173.582031 290.703125 173.3125 298.394531 C 172.773438 314.90625 172.238281 330.773438 154.738281 340.828125 C 151.011719 343.003906 147.011719 344.367188 142.730469 344.917969 C 139.851562 345.273438 136.984375 345.183594 134.136719 344.640625 C 131.285156 344.097656 128.585938 343.132812 126.039062 341.742188 C 120.710938 338.894531 115.703125 334.105469 111.554688 326.898438 C 106.925781 318.886719 103.375 307.910156 101.59375 293.335938 C 99.980469 280.214844 98.152344 268.757812 95.082031 257.191406 C 92.007812 245.625 87.710938 233.90625 81.136719 220.136719 C 74.730469 206.691406 68.804688 193.566406 65.414062 179.847656 C 61.96875 165.972656 61.214844 151.609375 65.144531 135.960938 C 67.082031 128.324219 69.992188 120.847656 74.027344 114.015625 Z M 78.292969 117.953125 " fill-opacity="1" fill-rule="nonzero"/><path fill="#273e66" d="M 156.042969 176.386719 C 161.910156 176.386719 166.648438 169.023438 166.648438 160.035156 C 166.648438 150.996094 161.910156 143.683594 156.042969 143.683594 C 150.226562 143.683594 145.488281 150.996094 145.488281 160.035156 C 145.488281 169.015625 150.226562 176.386719 156.042969 176.386719 Z M 156.042969 176.386719 " fill-opacity="1" fill-rule="evenodd"/><path fill="#273e66" d="M 220.433594 163.421875 C 218.710938 159.925781 216.238281 157.289062 213.332031 155.625 C 210.648438 154.074219 207.757812 153.359375 204.664062 153.476562 C 201.507812 153.628906 198.652344 154.632812 196.097656 156.488281 C 193.246094 158.582031 190.878906 161.757812 189.53125 165.996094 C 188.832031 168.203125 193.894531 170.355469 194.96875 167.289062 C 195.9375 164.4375 197.5 162.339844 199.382812 160.941406 C 201.027344 159.765625 202.859375 159.121094 204.878906 159.007812 C 206.914062 158.953125 208.820312 159.4375 210.585938 160.457031 C 212.671875 161.679688 214.230469 163.382812 215.265625 165.566406 C 216.882812 168.6875 221.890625 166.429688 220.433594 163.421875 Z M 220.433594 163.421875 " fill-opacity="1" fill-rule="nonzero"/><path fill="#273e66" d="M 123.679688 187.195312 L 64.398438 161.054688 L 66.234375 156.699219 L 125.511719 182.839844 Z M 123.679688 187.195312 " fill-opacity="1" fill-rule="nonzero"/><path fill="#273e66" d="M 126.375 244.746094 L 94.5 245.875 L 94.605469 241.140625 L 126.425781 240.011719 Z M 126.375 244.746094 " fill-opacity="1" fill-rule="nonzero"/><path fill="#273e66" d="M 237.933594 184.289062 L 298.613281 156.699219 L 300.496094 161.054688 L 239.765625 188.699219 Z M 237.933594 184.289062 " fill-opacity="1" fill-rule="nonzero"/><path fill="#273e66" d="M 238.957031 239.796875 L 270.292969 241.035156 L 270.34375 245.765625 L 239.011719 244.53125 Z M 238.957031 239.796875 " fill-opacity="1" fill-rule="nonzero"/><path fill="#4da391" d="M 120.9375 182.515625 C 161.855469 177.457031 202.777344 177.890625 243.695312 182.515625 L 243.695312 246.144531 C 204.070312 252.167969 163.203125 252.488281 120.9375 246.144531 Z M 120.9375 182.515625 " fill-opacity="1" fill-rule="evenodd"/><path fill="#273e66" d="M 120.722656 180.472656 C 141.175781 177.933594 161.707031 176.714844 182.316406 176.816406 C 202.933594 176.878906 223.484375 178.097656 243.964844 180.472656 L 245.804688 180.632812 L 245.804688 247.917969 L 244.027344 248.191406 C 223.898438 251.25 203.65625 252.808594 183.292969 252.867188 C 162.304688 252.863281 141.433594 251.304688 120.675781 248.191406 L 118.832031 247.917969 L 118.832031 180.6875 Z M 182.316406 180.957031 C 162.484375 180.871094 142.726562 182.019531 123.035156 184.398438 L 123.035156 244.320312 C 143.011719 247.273438 163.09375 248.726562 183.285156 248.675781 C 202.84375 248.636719 222.300781 247.183594 241.648438 244.320312 L 241.648438 184.398438 C 221.933594 182.179688 202.15625 181.035156 182.316406 180.957031 Z M 182.316406 180.957031 " fill-opacity="1" fill-rule="nonzero"/><path fill="#273e66" d="M 182.316406 197.628906 C 209.773438 197.628906 232.121094 196.445312 232.121094 195.046875 C 232.121094 193.648438 209.773438 192.46875 182.316406 192.46875 C 154.910156 192.46875 132.511719 193.652344 132.511719 195.046875 C 132.511719 196.441406 154.910156 197.628906 182.316406 197.628906 Z M 182.316406 197.628906 " fill-opacity="1" fill-rule="evenodd"/><path fill="#273e66" d="M 182.316406 215.164062 C 209.773438 215.164062 232.121094 213.980469 232.121094 212.582031 C 232.121094 211.132812 209.773438 210 182.316406 210 C 154.910156 210 132.511719 211.132812 132.511719 212.582031 C 132.511719 213.980469 154.910156 215.164062 182.316406 215.164062 Z M 182.316406 215.164062 " fill-opacity="1" fill-rule="evenodd"/><path fill="#273e66" d="M 182.316406 232.695312 C 209.773438 232.695312 232.121094 231.511719 232.121094 230.117188 C 232.121094 228.664062 209.773438 227.535156 182.316406 227.535156 C 154.910156 227.535156 132.511719 228.664062 132.511719 230.117188 C 132.511719 231.511719 154.910156 232.695312 182.316406 232.695312 Z M 182.316406 232.695312 " fill-opacity="1" fill-rule="evenodd"/><path fill="#273e66" d="M 328.121094 184.9375 C 330.917969 172.941406 336.628906 180.363281 338.351562 176.921875 C 345.242188 163.046875 365.371094 175.417969 365.371094 186.335938 C 365.371094 199.566406 355.515625 203.332031 347.65625 204.125 C 337.425781 205.253906 325.203125 197.566406 328.109375 184.925781 Z M 328.121094 184.9375 " fill-opacity="1" fill-rule="evenodd"/><path fill="#4da391" d="M 328.925781 156.375 L 339.480469 152.339844 C 341.09375 151.695312 342.660156 152.035156 343.035156 152.933594 L 349.980469 170.898438 C 346.644531 171.433594 344.21875 175.578125 345.070312 179.179688 C 346.523438 184.984375 349.058594 187.355469 354.28125 189.882812 C 354.925781 190.203125 356.21875 190.367188 357.511719 190.472656 L 363.59375 206.390625 C 363.96875 207.363281 363 208.652344 361.386719 209.246094 L 350.839844 213.34375 C 349.226562 213.929688 347.667969 213.648438 347.289062 212.695312 L 339.585938 192.6875 C 341.738281 186.714844 343.949219 176.875 333.828125 177.683594 L 326.71875 159.234375 C 326.34375 158.265625 327.3125 156.972656 328.925781 156.378906 Z M 328.925781 156.375 " fill-opacity="1" fill-rule="evenodd"/><path fill="#273e66" d="M 328.175781 154.453125 L 338.726562 150.367188 C 339.820312 149.953125 340.949219 149.828125 342.105469 149.988281 C 343.449219 150.253906 344.527344 151.011719 344.957031 152.195312 L 352.980469 173.007812 L 350.125 173.007812 L 350.019531 173.058594 C 349.160156 173.277344 348.351562 173.980469 347.757812 174.945312 C 347.101562 175.988281 346.867188 177.117188 347.058594 178.332031 C 347.058594 178.441406 347.109375 178.601562 347.109375 178.710938 C 347.757812 181.238281 348.566406 183.003906 349.804688 184.355469 C 351.03125 185.753906 352.820312 186.832031 355.1875 188.011719 C 355.417969 188.09375 355.648438 188.148438 355.890625 188.175781 C 356.476562 188.304688 357.066406 188.394531 357.664062 188.445312 L 358.957031 188.554688 L 365.578125 205.65625 C 365.789062 206.277344 365.832031 206.90625 365.707031 207.550781 C 365.582031 208.195312 365.308594 208.761719 364.878906 209.261719 C 364.160156 210.175781 363.253906 210.820312 362.152344 211.195312 L 351.597656 215.285156 C 350.503906 215.695312 349.378906 215.820312 348.222656 215.660156 C 346.878906 215.445312 345.800781 214.691406 345.371094 213.457031 L 337.347656 192.695312 L 337.617188 191.996094 C 338.640625 189.195312 339.605469 185.648438 339.230469 182.957031 C 338.960938 180.96875 337.617188 179.515625 334.011719 179.785156 L 332.449219 179.945312 L 324.730469 159.972656 C 324.296875 158.746094 324.566406 157.5 325.429688 156.367188 C 326.167969 155.472656 327.082031 154.824219 328.175781 154.433594 Z M 340.234375 154.292969 L 329.683594 158.324219 C 329.351562 158.464844 329.046875 158.644531 328.761719 158.863281 L 335.210938 175.589844 C 340.59375 175.644531 342.800781 178.496094 343.339844 182.367188 C 343.824219 185.59375 342.855469 189.519531 341.777344 192.640625 L 349.046875 211.574219 C 349.394531 211.5625 349.738281 211.507812 350.070312 211.410156 L 360.625 207.324219 C 360.953125 207.214844 361.242188 207.035156 361.484375 206.785156 L 356.011719 192.46875 C 355.703125 192.410156 355.417969 192.359375 355.148438 192.304688 C 354.539062 192.179688 353.945312 192.003906 353.371094 191.765625 C 350.519531 190.367188 348.417969 189.027344 346.695312 187.140625 C 345.027344 185.257812 343.894531 182.945312 343.089844 179.664062 C 342.984375 179.425781 342.929688 179.175781 342.929688 178.914062 C 342.785156 177.851562 342.816406 176.792969 343.027344 175.742188 C 343.238281 174.691406 343.613281 173.703125 344.15625 172.777344 C 344.921875 171.496094 345.945312 170.472656 347.226562 169.710938 L 341.253906 154.066406 C 340.921875 154.078125 340.597656 154.132812 340.28125 154.230469 Z M 340.234375 154.292969 " fill-opacity="1" fill-rule="nonzero"/><path fill="#d6eff8" d="M 304.121094 76.074219 C 304.789062 75.820312 305.46875 75.597656 306.160156 75.40625 C 306.847656 75.21875 307.546875 75.066406 308.25 74.945312 C 308.957031 74.824219 309.667969 74.738281 310.378906 74.6875 C 311.09375 74.636719 311.808594 74.621094 312.523438 74.640625 C 313.238281 74.660156 313.953125 74.714844 314.664062 74.804688 C 315.371094 74.894531 316.078125 75.015625 316.773438 75.175781 C 317.472656 75.332031 318.160156 75.527344 318.839844 75.75 C 319.519531 75.976562 320.183594 76.234375 320.839844 76.527344 C 321.492188 76.820312 322.128906 77.140625 322.75 77.496094 C 323.371094 77.847656 323.976562 78.230469 324.558594 78.644531 C 325.144531 79.058594 325.707031 79.5 326.246094 79.964844 C 326.789062 80.433594 327.304688 80.929688 327.796875 81.445312 C 328.289062 81.964844 328.753906 82.507812 329.195312 83.070312 C 329.632812 83.636719 330.042969 84.222656 330.425781 84.824219 C 330.804688 85.429688 331.15625 86.050781 331.476562 86.691406 C 331.796875 87.332031 332.085938 87.984375 332.34375 88.652344 C 332.597656 89.320312 332.820312 89.996094 333.011719 90.6875 C 333.199219 91.375 333.355469 92.074219 333.476562 92.777344 C 333.597656 93.484375 333.683594 94.191406 333.734375 94.90625 C 333.785156 95.617188 333.800781 96.332031 333.78125 97.046875 C 333.765625 97.761719 333.710938 98.472656 333.621094 99.183594 C 333.53125 99.890625 333.410156 100.59375 333.25 101.292969 C 333.09375 101.988281 332.902344 102.675781 332.675781 103.355469 C 332.449219 104.03125 332.191406 104.699219 331.898438 105.351562 C 331.609375 106.003906 331.285156 106.640625 330.933594 107.261719 C 330.578125 107.882812 330.195312 108.488281 329.78125 109.070312 C 329.367188 109.65625 328.929688 110.21875 328.460938 110.757812 C 327.992188 111.296875 327.5 111.8125 326.980469 112.304688 C 326.460938 112.796875 325.917969 113.265625 325.351562 113.703125 C 324.789062 114.140625 324.203125 114.550781 323.597656 114.933594 C 322.992188 115.316406 322.371094 115.667969 321.730469 115.988281 C 321.089844 116.308594 320.4375 116.59375 319.769531 116.851562 C 319.101562 117.109375 318.421875 117.332031 317.734375 117.519531 C 317.042969 117.710938 316.34375 117.867188 315.640625 117.988281 C 314.933594 118.109375 314.226562 118.195312 313.511719 118.246094 C 312.796875 118.296875 312.082031 118.316406 311.367188 118.296875 C 310.652344 118.277344 309.941406 118.226562 309.230469 118.136719 C 308.519531 118.046875 307.816406 117.925781 307.117188 117.769531 C 306.417969 117.609375 305.730469 117.417969 305.050781 117.195312 C 304.371094 116.96875 303.707031 116.710938 303.050781 116.421875 C 302.398438 116.128906 301.761719 115.808594 301.136719 115.457031 C 300.515625 115.101562 299.910156 114.71875 299.328125 114.308594 C 298.742188 113.894531 298.179688 113.457031 297.636719 112.988281 C 297.097656 112.519531 296.578125 112.027344 296.085938 111.511719 C 295.59375 110.992188 295.128906 110.449219 294.6875 109.886719 C 294.246094 109.324219 293.835938 108.738281 293.453125 108.132812 C 293.074219 107.53125 292.71875 106.910156 292.398438 106.269531 C 292.078125 105.632812 291.789062 104.976562 291.53125 104.3125 C 291.273438 103.644531 291.046875 102.964844 290.855469 102.273438 C 290.664062 101.582031 290.507812 100.886719 290.386719 100.179688 C 290.261719 99.472656 290.175781 98.761719 290.121094 98.050781 C 290.070312 97.335938 290.050781 96.621094 290.070312 95.902344 C 290.089844 95.1875 290.140625 94.472656 290.230469 93.761719 C 290.316406 93.050781 290.441406 92.347656 290.597656 91.648438 C 290.757812 90.949219 290.949219 90.261719 291.175781 89.582031 C 291.402344 88.902344 291.660156 88.234375 291.949219 87.578125 C 292.242188 86.925781 292.566406 86.285156 292.921875 85.664062 C 293.277344 85.039062 293.660156 84.4375 294.074219 83.851562 C 294.488281 83.269531 294.929688 82.703125 295.402344 82.164062 C 295.871094 81.621094 296.367188 81.105469 296.886719 80.613281 C 297.40625 80.121094 297.953125 79.65625 298.519531 79.214844 C 299.085938 78.777344 299.671875 78.367188 300.277344 77.988281 C 300.886719 77.605469 301.511719 77.253906 302.152344 76.9375 C 302.792969 76.617188 303.449219 76.328125 304.121094 76.074219 Z M 304.121094 76.074219 " fill-opacity="1" fill-rule="evenodd"/><path fill="#273e66" d="M 303.351562 74.140625 C 303.808594 73.964844 304.273438 73.800781 304.738281 73.65625 C 305.207031 73.507812 305.679688 73.375 306.152344 73.257812 C 306.628906 73.140625 307.105469 73.039062 307.589844 72.949219 C 308.070312 72.859375 308.554688 72.785156 309.039062 72.726562 C 309.527344 72.667969 310.015625 72.625 310.503906 72.59375 C 310.992188 72.566406 311.480469 72.550781 311.972656 72.554688 C 312.460938 72.554688 312.949219 72.570312 313.4375 72.601562 C 313.925781 72.632812 314.414062 72.675781 314.902344 72.738281 C 315.386719 72.800781 315.871094 72.875 316.351562 72.964844 C 316.832031 73.054688 317.3125 73.160156 317.785156 73.28125 C 318.261719 73.398438 318.730469 73.535156 319.199219 73.683594 C 319.664062 73.832031 320.125 73.992188 320.582031 74.171875 C 321.039062 74.347656 321.492188 74.539062 321.933594 74.742188 C 322.378906 74.945312 322.820312 75.164062 323.25 75.394531 C 323.683594 75.625 324.105469 75.871094 324.523438 76.128906 C 324.9375 76.386719 325.347656 76.65625 325.746094 76.9375 C 326.148438 77.21875 326.539062 77.515625 326.921875 77.820312 C 327.300781 78.128906 327.675781 78.445312 328.035156 78.773438 C 328.398438 79.101562 328.75 79.441406 329.09375 79.792969 C 329.433594 80.144531 329.765625 80.503906 330.082031 80.875 C 330.402344 81.246094 330.710938 81.625 331.007812 82.015625 C 331.304688 82.40625 331.585938 82.804688 331.859375 83.210938 C 332.128906 83.617188 332.386719 84.035156 332.632812 84.457031 C 332.878906 84.878906 333.113281 85.308594 333.332031 85.746094 C 333.554688 86.183594 333.757812 86.628906 333.953125 87.078125 C 334.144531 87.527344 334.320312 87.984375 334.488281 88.445312 C 334.652344 88.90625 334.800781 89.371094 334.9375 89.839844 C 335.074219 90.308594 335.195312 90.785156 335.300781 91.261719 C 335.40625 91.738281 335.5 92.21875 335.578125 92.703125 C 335.65625 93.183594 335.714844 93.671875 335.765625 94.15625 C 335.8125 94.644531 335.84375 95.132812 335.863281 95.621094 C 335.878906 96.109375 335.882812 96.597656 335.871094 97.089844 C 335.855469 97.578125 335.828125 98.066406 335.785156 98.554688 C 335.746094 99.039062 335.6875 99.527344 335.613281 100.007812 C 335.542969 100.492188 335.457031 100.976562 335.351562 101.453125 C 335.25 101.933594 335.136719 102.40625 335.003906 102.878906 C 334.871094 103.347656 334.726562 103.816406 334.566406 104.277344 C 334.410156 104.742188 334.234375 105.199219 334.046875 105.652344 C 333.859375 106.101562 333.65625 106.546875 333.441406 106.988281 C 333.226562 107.425781 333 107.859375 332.757812 108.285156 C 332.515625 108.710938 332.261719 109.128906 331.992188 109.539062 C 331.726562 109.949219 331.445312 110.347656 331.15625 110.742188 C 330.863281 111.132812 330.558594 111.519531 330.242188 111.890625 C 329.925781 112.265625 329.601562 112.628906 329.261719 112.984375 C 328.925781 113.339844 328.578125 113.683594 328.21875 114.015625 C 327.859375 114.347656 327.488281 114.667969 327.109375 114.980469 C 326.730469 115.289062 326.34375 115.585938 325.949219 115.875 C 325.550781 116.160156 325.144531 116.433594 324.730469 116.695312 C 324.316406 116.957031 323.894531 117.207031 323.464844 117.441406 C 323.039062 117.675781 322.601562 117.898438 322.160156 118.109375 C 321.714844 118.316406 321.265625 118.511719 320.8125 118.695312 C 320.355469 118.875 319.898438 119.042969 319.433594 119.195312 C 318.96875 119.351562 318.496094 119.488281 318.023438 119.613281 C 317.550781 119.738281 317.074219 119.847656 316.59375 119.945312 C 316.113281 120.039062 315.628906 120.121094 315.144531 120.183594 C 314.660156 120.25 314.171875 120.300781 313.683594 120.335938 C 313.195312 120.375 312.707031 120.394531 312.21875 120.398438 C 311.726562 120.40625 311.238281 120.398438 310.75 120.375 C 310.261719 120.347656 309.773438 120.308594 309.285156 120.257812 C 308.796875 120.203125 308.3125 120.132812 307.832031 120.050781 C 307.347656 119.964844 306.871094 119.867188 306.394531 119.753906 C 305.917969 119.640625 305.445312 119.515625 304.976562 119.371094 C 304.507812 119.230469 304.042969 119.074219 303.582031 118.902344 C 303.125 118.734375 302.671875 118.546875 302.222656 118.351562 C 300.785156 117.707031 299.425781 116.933594 298.140625 116.027344 C 296.855469 115.117188 295.671875 114.09375 294.585938 112.957031 C 293.5 111.816406 292.535156 110.585938 291.691406 109.257812 C 290.847656 107.929688 290.140625 106.535156 289.570312 105.070312 C 289.007812 103.605469 288.589844 102.097656 288.324219 100.550781 C 288.058594 99.003906 287.949219 97.445312 287.988281 95.878906 C 288.03125 94.308594 288.226562 92.757812 288.574219 91.226562 C 288.921875 89.695312 289.414062 88.214844 290.054688 86.78125 C 290.6875 85.339844 291.460938 83.976562 292.363281 82.6875 C 293.269531 81.402344 294.292969 80.214844 295.4375 79.128906 C 296.578125 78.046875 297.8125 77.082031 299.148438 76.242188 C 300.480469 75.402344 301.882812 74.703125 303.351562 74.140625 Z M 319.933594 78.433594 C 319.34375 78.171875 318.738281 77.9375 318.125 77.734375 C 317.511719 77.53125 316.886719 77.359375 316.253906 77.214844 C 315.625 77.074219 314.988281 76.964844 314.34375 76.882812 C 313.703125 76.804688 313.058594 76.753906 312.410156 76.738281 C 311.761719 76.722656 311.117188 76.738281 310.472656 76.785156 C 309.824219 76.832031 309.183594 76.910156 308.546875 77.019531 C 307.90625 77.132812 307.277344 77.273438 306.652344 77.445312 C 306.027344 77.617188 305.414062 77.820312 304.8125 78.050781 C 304.207031 78.28125 303.617188 78.542969 303.039062 78.835938 C 302.457031 79.125 301.894531 79.441406 301.347656 79.789062 C 300.800781 80.132812 300.273438 80.503906 299.761719 80.902344 C 299.25 81.300781 298.761719 81.722656 298.292969 82.167969 C 297.824219 82.613281 297.378906 83.082031 296.953125 83.570312 C 296.53125 84.058594 296.132812 84.566406 295.757812 85.097656 C 295.386719 85.625 295.039062 86.171875 294.71875 86.734375 C 294.402344 87.296875 294.109375 87.871094 293.847656 88.460938 C 293.585938 89.054688 293.351562 89.65625 293.148438 90.269531 C 292.945312 90.882812 292.769531 91.507812 292.628906 92.136719 C 292.488281 92.769531 292.375 93.402344 292.296875 94.046875 C 292.214844 94.6875 292.167969 95.332031 292.152344 95.976562 C 292.136719 96.625 292.152344 97.269531 292.199219 97.914062 C 292.246094 98.558594 292.324219 99.203125 292.433594 99.839844 C 292.542969 100.476562 292.683594 101.105469 292.855469 101.730469 C 293.03125 102.351562 293.230469 102.964844 293.464844 103.570312 C 293.695312 104.171875 293.957031 104.765625 294.25 105.339844 C 294.539062 105.917969 294.859375 106.480469 295.203125 107.027344 C 295.550781 107.574219 295.921875 108.101562 296.320312 108.613281 C 296.71875 109.125 297.140625 109.613281 297.585938 110.082031 C 298.03125 110.550781 298.5 110.996094 298.988281 111.417969 C 299.480469 111.839844 299.988281 112.238281 300.519531 112.613281 C 301.046875 112.984375 301.59375 113.332031 302.15625 113.648438 C 302.71875 113.96875 303.296875 114.257812 303.886719 114.523438 C 305.074219 115.046875 306.300781 115.449219 307.570312 115.734375 C 308.835938 116.015625 310.117188 116.175781 311.414062 116.207031 C 312.714844 116.238281 314.003906 116.144531 315.28125 115.925781 C 316.5625 115.707031 317.804688 115.363281 319.019531 114.898438 C 319.925781 114.550781 320.800781 114.136719 321.644531 113.660156 C 322.492188 113.183594 323.296875 112.644531 324.0625 112.046875 C 324.828125 111.453125 325.546875 110.804688 326.21875 110.101562 C 326.886719 109.398438 327.503906 108.652344 328.0625 107.859375 C 328.625 107.066406 329.121094 106.238281 329.5625 105.371094 C 330 104.507812 330.371094 103.613281 330.675781 102.691406 C 330.984375 101.769531 331.21875 100.832031 331.386719 99.878906 C 331.554688 98.921875 331.652344 97.960938 331.679688 96.988281 C 331.703125 96.019531 331.65625 95.054688 331.542969 94.089844 C 331.425781 93.125 331.238281 92.175781 330.980469 91.242188 C 330.722656 90.304688 330.402344 89.394531 330.007812 88.507812 C 329.617188 87.617188 329.164062 86.765625 328.648438 85.941406 C 328.128906 85.121094 327.554688 84.34375 326.921875 83.605469 C 326.289062 82.871094 325.609375 82.183594 324.875 81.546875 C 324.140625 80.910156 323.367188 80.332031 322.546875 79.808594 C 321.726562 79.289062 320.875 78.828125 319.988281 78.433594 Z M 319.933594 78.433594 " fill-opacity="1" fill-rule="nonzero"/><path fill="#fefefe" d="M 161.652344 108.507812 C 165.367188 106.515625 170.15625 105.332031 173.121094 105.386719 C 185.707031 105.710938 198.800781 105.601562 211.132812 102.699219 C 214.683594 101.890625 228.199219 97.050781 230.296875 100.859375 C 233.367188 106.667969 227.714844 111.453125 223.351562 114.625 C 212.53125 122.320312 198.535156 123.285156 185.824219 120.542969 C 179.042969 119.089844 173.335938 118.875 167.25 119.789062 C 149.96875 122.371094 153.628906 112.691406 161.652344 108.496094 Z M 161.652344 108.507812 " fill-opacity="1" fill-rule="evenodd"/><path fill="#fefefe" d="M 248.003906 284.117188 C 244.773438 291.539062 242.675781 303.53125 240.898438 309.773438 C 232.660156 338.277344 226.519531 328.652344 231.851562 308.15625 C 234.652344 297.292969 239.21875 284.539062 240.734375 281.105469 C 246.980469 266.90625 254.410156 269.433594 248.003906 284.117188 Z M 247.414062 261.796875 C 247.355469 258.140625 250.050781 254.265625 252.957031 254.265625 C 257.910156 254.265625 258.019531 258.460938 256.511719 262.386719 C 253.28125 270.777344 247.464844 266.957031 247.414062 261.796875 Z M 247.414062 261.796875 " fill-opacity="1" fill-rule="evenodd"/><path fill="#8dd7f7" d="M 65.316406 76.828125 C 73.609375 74.03125 76.03125 67.628906 76.679688 60.207031 C 77.324219 67.628906 79.75 74.03125 88.089844 76.828125 C 79.746094 79.621094 77.324219 86.03125 76.679688 93.445312 C 76.03125 86.023438 73.609375 79.621094 65.316406 76.828125 Z M 65.316406 76.828125 " fill-opacity="1" fill-rule="evenodd"/><g clip-path="url(#5b54ec8211)"><path fill="#8dd7f7" d="M 165.085938 43.265625 C 173.378906 40.46875 175.804688 34.0625 176.449219 26.644531 C 177.09375 34.066406 179.519531 40.46875 187.863281 43.265625 C 179.519531 46.0625 177.09375 52.40625 176.449219 59.886719 C 175.804688 52.40625 173.378906 46.0625 165.085938 43.265625 Z M 165.085938 43.265625 " fill-opacity="1" fill-rule="evenodd"/></g><path fill="#8dd7f7" d="M 255.378906 64.242188 C 263.671875 61.445312 266.097656 55.039062 266.742188 47.621094 C 267.441406 55.046875 269.863281 61.445312 278.152344 64.242188 C 269.863281 67.039062 267.441406 73.441406 266.742188 80.863281 C 266.097656 73.441406 263.671875 67.039062 255.378906 64.242188 Z M 255.378906 64.242188 " fill-opacity="1" fill-rule="evenodd"/></svg>