<svg xmlns="http://www.w3.org/2000/svg" xmlns:xlink="http://www.w3.org/1999/xlink" width="1920" zoomAndPan="magnify" viewBox="0 0 1440 809.999993" height="1080" preserveAspectRatio="xMidYMid meet" version="1.0"><defs><g/></defs><path fill="#e3e2e3" d="M 426.84375 659.964844 C 557.875 659.964844 664.132812 675.417969 664.132812 694.480469 C 664.132812 713.539062 557.875 728.992188 426.84375 728.992188 C 295.820312 728.992188 189.558594 713.539062 189.558594 694.480469 C 189.558594 675.417969 295.820312 659.964844 426.84375 659.964844 Z M 426.84375 659.964844 " fill-opacity="1" fill-rule="evenodd"/><path fill="#69b3ac" d="M 512.722656 152.457031 C 399.21875 200.21875 337.53125 115.734375 261.175781 98.46875 C 184.003906 81.03125 139.859375 132.425781 134.410156 198.121094 C 123.167969 333.640625 214.605469 575.277344 274.441406 661.890625 C 315.96875 721.996094 365.871094 687.308594 372.164062 622.308594 C 379.179688 549.785156 414.25 493.964844 478.699219 544.8125 C 438.855469 466.375 357.785156 491.113281 338.945312 578.75 C 329.871094 620.945312 310.554688 632.75 285.664062 583.390625 C 247.296875 507.308594 144.785156 267.371094 221.277344 181.015625 C 286.925781 106.902344 391.050781 248.425781 512.722656 152.457031 Z M 512.722656 152.457031 " fill-opacity="1" fill-rule="evenodd"/><path fill="#69b3ac" d="M 376.496094 203.671875 C 507.40625 256.511719 585.140625 87.105469 677.074219 126.847656 C 794.664062 177.675781 641.507812 539.226562 583.601562 659.800781 C 559.519531 709.953125 497.578125 712.042969 482.570312 662.472656 C 448.722656 550.671875 442.175781 413.339844 239.886719 354.238281 C 463.777344 386.589844 486.558594 495.808594 505.300781 568.871094 C 525.324219 646.921875 538.609375 656.667969 571.042969 573.769531 C 597.03125 507.351562 659.574219 337.734375 658.730469 243.121094 C 658.238281 188.351562 625.363281 174.195312 570.101562 206.582031 C 530.996094 229.496094 450.832031 256.609375 376.496094 203.671875 Z M 376.496094 203.671875 " fill-opacity="1" fill-rule="evenodd"/><g fill="#69b3ac" fill-opacity="1"><g transform="translate(410.163874, 589.55035)"><g><path d="M 217.328125 -97.5 L 75.96875 -97.5 C 77.5625 -78.351562 83.007812 -64.425781 92.3125 -55.71875 C 101.613281 -47.019531 114.304688 -42.671875 130.390625 -42.671875 C 143.015625 -42.671875 153.25 -45.03125 161.09375 -49.75 C 168.9375 -54.46875 175.253906 -61.609375 180.046875 -71.171875 L 184.21875 -71.171875 L 220.90625 -47.65625 C 213.726562 -32.238281 202.894531 -19.742188 188.40625 -10.171875 C 173.925781 -0.597656 154.585938 4.1875 130.390625 4.1875 C 107.660156 4.1875 88.019531 -0.128906 71.46875 -8.765625 C 54.925781 -17.410156 42.164062 -30.269531 33.1875 -47.34375 C 24.21875 -64.425781 19.734375 -85.265625 19.734375 -109.859375 C 19.734375 -134.847656 24.453125 -155.914062 33.890625 -173.0625 C 43.328125 -190.207031 56.085938 -203 72.171875 -211.4375 C 88.253906 -219.882812 106.332031 -224.109375 126.40625 -224.109375 C 157.507812 -224.109375 181.332031 -215.863281 197.875 -199.375 C 214.425781 -182.894531 222.703125 -158.707031 222.703125 -126.8125 C 222.703125 -115.238281 222.304688 -106.265625 221.515625 -99.890625 Z M 169.875 -133.1875 C 169.34375 -149.9375 165.453125 -162.128906 158.203125 -169.765625 C 150.960938 -177.410156 140.363281 -181.234375 126.40625 -181.234375 C 98.488281 -181.234375 82.070312 -165.21875 77.15625 -133.1875 Z M 169.875 -133.1875 "/></g></g></g><g fill="#69b3ac" fill-opacity="1"><g transform="translate(649.210256, 589.55035)"><g><path d="M 217.328125 -97.5 L 75.96875 -97.5 C 77.5625 -78.351562 83.007812 -64.425781 92.3125 -55.71875 C 101.613281 -47.019531 114.304688 -42.671875 130.390625 -42.671875 C 143.015625 -42.671875 153.25 -45.03125 161.09375 -49.75 C 168.9375 -54.46875 175.253906 -61.609375 180.046875 -71.171875 L 184.21875 -71.171875 L 220.90625 -47.65625 C 213.726562 -32.238281 202.894531 -19.742188 188.40625 -10.171875 C 173.925781 -0.597656 154.585938 4.1875 130.390625 4.1875 C 107.660156 4.1875 88.019531 -0.128906 71.46875 -8.765625 C 54.925781 -17.410156 42.164062 -30.269531 33.1875 -47.34375 C 24.21875 -64.425781 19.734375 -85.265625 19.734375 -109.859375 C 19.734375 -134.847656 24.453125 -155.914062 33.890625 -173.0625 C 43.328125 -190.207031 56.085938 -203 72.171875 -211.4375 C 88.253906 -219.882812 106.332031 -224.109375 126.40625 -224.109375 C 157.507812 -224.109375 181.332031 -215.863281 197.875 -199.375 C 214.425781 -182.894531 222.703125 -158.707031 222.703125 -126.8125 C 222.703125 -115.238281 222.304688 -106.265625 221.515625 -99.890625 Z M 169.875 -133.1875 C 169.34375 -149.9375 165.453125 -162.128906 158.203125 -169.765625 C 150.960938 -177.410156 140.363281 -181.234375 126.40625 -181.234375 C 98.488281 -181.234375 82.070312 -165.21875 77.15625 -133.1875 Z M 169.875 -133.1875 "/></g></g></g><g fill="#69b3ac" fill-opacity="1"><g transform="translate(888.256639, 589.55035)"><g><path d="M 151.734375 -52.4375 L 166.078125 -11.5625 C 160.097656 -6.644531 152.585938 -2.789062 143.546875 0 C 134.515625 2.789062 124.28125 4.1875 112.84375 4.1875 C 89.050781 4.1875 70.972656 -2.289062 58.609375 -15.25 C 46.253906 -28.207031 40.078125 -47.050781 40.078125 -71.78125 L 40.078125 -176.25 L 6.578125 -176.25 L 6.578125 -220.109375 L 40.078125 -220.109375 L 40.078125 -262.984375 L 95.296875 -271.953125 L 95.296875 -220.109375 L 157.703125 -220.109375 L 157.703125 -176.25 L 95.296875 -176.25 L 95.296875 -75.765625 C 95.296875 -64.867188 97.554688 -56.925781 102.078125 -51.9375 C 106.597656 -46.957031 113.179688 -44.46875 121.828125 -44.46875 C 131.660156 -44.46875 140.234375 -47.125 147.546875 -52.4375 Z M 151.734375 -52.4375 "/></g></g></g><g fill="#69b3ac" fill-opacity="1"><g transform="translate(1059.117982, 589.55035)"><g><path d="M 31.703125 0 L 31.703125 -308.234375 L 86.921875 -308.234375 L 86.921875 -191.203125 L 91.109375 -190.40625 C 98.421875 -201.175781 107.394531 -209.484375 118.03125 -215.328125 C 128.664062 -221.179688 141.492188 -224.109375 156.515625 -224.109375 C 205.023438 -224.109375 229.28125 -196.59375 229.28125 -141.5625 L 229.28125 0 L 174.0625 0 L 174.0625 -134.578125 C 174.0625 -149.597656 171.066406 -160.5 165.078125 -167.28125 C 159.097656 -174.0625 149.796875 -177.453125 137.171875 -177.453125 C 121.753906 -177.453125 109.523438 -172.300781 100.484375 -162 C 91.441406 -151.695312 86.921875 -135.644531 86.921875 -113.84375 L 86.921875 0 Z M 31.703125 0 "/></g></g></g></svg>